<svg width="29" height="28" viewBox="0 0 29 28" fill="none" xmlns="http://www.w3.org/2000/svg">
<g clip-path="url(#clip0_243_299)">
<path opacity="0.4" d="M25.845 15.8862C25.6902 16.669 25.4594 17.4244 25.1608 18.1446C24.5508 19.6158 23.6573 20.9399 22.5486 22.0486C20.3704 24.2269 17.3611 25.5741 14.037 25.5741C7.38889 25.5741 2 20.1852 2 13.537C2 10.213 3.34722 7.2037 5.52546 5.02546C6.63419 3.91673 7.95823 3.02331 9.42949 2.41326C10.8487 1.82479 12.4049 1.5 14.037 1.5C15.0225 1.5 15.9802 1.61826 16.8969 1.84155" stroke="#6A63EB" stroke-width="3" stroke-linecap="round" stroke-linejoin="round"/>
<path d="M10.332 12.6108L14.0357 16.3145L26.9987 3.35156" stroke="#6A63EB" stroke-width="3" stroke-linecap="round" stroke-linejoin="round"/>
</g>
<defs>
<clipPath id="clip0_243_299">
<rect width="29" height="28" fill="white"/>
</clipPath>
</defs>
</svg>
