<svg width="230" height="36" viewBox="0 0 230 36" fill="none" xmlns="http://www.w3.org/2000/svg">
<g clip-path="url(#clip0_351_36)">
<path d="M50.7668 25.6295V12.1922H54.4551V25.9226C54.4551 27.3587 54.0158 28.4923 53.1397 29.3247C52.2624 30.1571 51.1895 30.5732 49.9189 30.5732C48.6482 30.5732 47.44 30.0504 46.293 29.007L47.9899 26.2907C48.4822 26.8616 49.031 27.1477 49.6374 27.1477C49.9648 27.1477 50.2357 27.0211 50.4488 26.7678C50.6608 26.5134 50.7668 26.1348 50.7668 25.6295ZM51.0741 10.5404C50.6561 10.1242 50.4476 9.61426 50.4476 9.01051C50.4476 8.40676 50.6561 7.89679 51.0741 7.48061C51.4922 7.06444 52.0045 6.85693 52.6109 6.85693C53.2174 6.85693 53.7297 7.06444 54.1477 7.48061C54.5658 7.89679 54.7742 8.40676 54.7742 9.01051C54.7742 9.61426 54.5658 10.1242 54.1477 10.5404C53.7297 10.9566 53.2174 11.1641 52.6109 11.1641C52.0045 11.1641 51.4922 10.9554 51.0741 10.5404Z" fill="#222047"/>
<path d="M64.7572 19.3141V12.2167H68.4691V25.3844H64.7572V23.6458C63.8387 24.9354 62.6552 25.579 61.2043 25.579C59.7535 25.579 58.537 25.1265 57.5537 24.2203C56.5704 23.3141 56.0781 21.9729 56.0781 20.1945V12.2156H59.79V19.3867C59.79 21.4102 60.5354 22.4219 62.0275 22.4219C62.7647 22.4219 63.4041 22.157 63.9447 21.6259C64.4876 21.0972 64.7572 20.3258 64.7572 19.3141Z" fill="#222047"/>
<path d="M73.9266 18.0409V25.3832H70.2383V12.2167H73.9266V13.6857C75.0406 12.5602 76.2948 11.9963 77.688 11.9963C79.0811 11.9963 80.2493 12.4864 81.1914 13.4653C82.1335 14.4442 82.6045 15.7501 82.6045 17.3809V25.3844H78.9162V17.9436C78.9162 15.9201 78.1708 14.9084 76.6787 14.9084C75.9415 14.9084 75.2974 15.1734 74.7486 15.7044C74.201 16.2343 73.9266 17.0139 73.9266 18.0409Z" fill="#222047"/>
<path d="M94.0142 23.1571C92.8507 24.4467 91.4034 25.0903 89.6746 25.0903C87.9447 25.0903 86.4868 24.5065 85.2986 23.34C84.1103 22.1736 83.5156 20.6155 83.5156 18.6648C83.5156 16.7152 84.1256 15.1161 85.3468 13.8676C86.568 12.619 87.9647 11.9954 89.5392 11.9954C91.1125 11.9954 92.4161 12.6401 93.4477 13.9285V12.1923H97.1361V23.6718C97.1361 24.8465 96.9312 25.891 96.5213 26.8043C96.1115 27.7175 95.5628 28.4362 94.8738 28.9578C93.5137 30.0352 91.9074 30.5733 90.055 30.5733C89.0717 30.5733 88.0672 30.4139 87.0438 30.0962C86.0193 29.7785 85.1219 29.3248 84.3517 28.7374L85.7778 25.9719C86.9908 26.8852 88.2732 27.3424 89.6252 27.3424C90.9771 27.3424 92.0464 27.0083 92.8342 26.3389C93.6208 25.6695 94.0142 24.6097 94.0142 23.1571ZM93.4984 18.5194C93.4984 17.4666 93.2028 16.639 92.6128 16.0352C92.0228 15.4315 91.2927 15.1302 90.4248 15.1302C89.5557 15.1302 88.8055 15.4326 88.1755 16.0352C87.5443 16.639 87.2287 17.4631 87.2287 18.5077C87.2287 19.5522 87.536 20.3963 88.1508 21.0411C88.7655 21.6859 89.5156 22.0083 90.4 22.0083C91.2856 22.0083 92.0228 21.6906 92.6128 21.054C93.2028 20.4162 93.4984 19.571 93.4984 18.5194Z" fill="#222047"/>
<path d="M101.856 25.3845H98.168V7.22388H101.856V25.3845V25.3845Z" fill="#222047"/>
<path d="M115.081 23.4748C113.589 24.8781 111.84 25.5792 109.832 25.5792C107.825 25.5792 106.165 24.9637 104.853 23.7316C103.541 22.4995 102.887 20.8476 102.887 18.775C102.887 16.7034 103.554 15.0552 104.891 13.8312C106.226 12.6073 107.804 11.9954 109.624 11.9954C111.443 11.9954 112.988 12.5428 114.258 13.6355C115.527 14.7292 116.163 16.2298 116.163 18.1384V20.0962H106.526C106.64 20.8148 107.018 21.4022 107.656 21.8582C108.296 22.3154 109.016 22.544 109.819 22.544C111.114 22.544 112.179 22.1114 113.015 21.2474L115.081 23.4748ZM111.541 15.6671C111.032 15.2427 110.414 15.0305 109.685 15.0305C108.956 15.0305 108.287 15.2509 107.681 15.6917C107.074 16.1325 106.722 16.7281 106.623 17.4784H112.425C112.343 16.6952 112.049 16.0915 111.541 15.6671Z" fill="#222047"/>
<path d="M132.688 21.2849C132.688 22.5827 132.208 23.6226 131.25 24.4057C130.291 25.1888 129.073 25.5804 127.599 25.5804C126.616 25.5804 125.591 25.4045 124.525 25.054C123.46 24.7035 122.501 24.1853 121.648 23.4995L123.271 21.1982C124.648 22.2591 126.115 22.789 127.672 22.789C128.148 22.789 128.525 22.6952 128.803 22.5077C129.08 22.3201 129.221 22.0716 129.221 21.7609C129.221 21.4514 129.027 21.1654 128.642 20.9039C128.257 20.6425 127.7 20.3986 126.97 20.17C126.24 19.9414 125.683 19.7457 125.298 19.5827C124.913 19.4197 124.475 19.1829 123.983 18.8734C122.983 18.2533 122.482 17.3353 122.482 16.1196C122.482 14.9039 122.974 13.9133 123.958 13.1454C124.941 12.3787 126.212 11.9954 127.769 11.9954C129.325 11.9954 130.882 12.5182 132.44 13.5616L131.064 16.0094C129.917 15.2263 128.773 14.8348 127.634 14.8348C126.494 14.8348 125.926 15.1454 125.926 15.7644C125.926 16.1067 126.106 16.3764 126.466 16.5721C126.826 16.7679 127.425 16.9965 128.261 17.258C129.097 17.5194 129.69 17.7187 130.044 17.857C130.396 17.9954 130.819 18.2122 131.31 18.5053C132.228 19.0622 132.688 19.9872 132.688 21.2849Z" fill="#222047"/>
<path d="M138.094 14.8592V20.7572C138.094 21.2637 138.224 21.6587 138.487 21.9448C138.748 22.2308 139.061 22.3727 139.421 22.3727C140.11 22.3727 140.69 22.0632 141.166 21.443L142.543 24.0128C141.396 25.0573 140.186 25.579 138.917 25.579C137.646 25.579 136.572 25.1628 135.696 24.3305C134.819 23.4981 134.381 22.3645 134.381 20.9284V14.858H132.832V12.2144H134.381V8.27539H138.092V12.2156H141.289V14.8592H138.094Z" fill="#222047"/>
<path d="M149.748 15.4465C148.649 15.4465 147.83 15.8346 147.289 16.6095C146.748 17.3844 146.477 18.409 146.477 19.681V25.3832H142.789V12.2167H146.477V13.9541C146.953 13.416 147.547 12.9588 148.26 12.5837C148.973 12.2085 149.698 12.0128 150.437 11.9963L150.461 15.4477H149.748V15.4465Z" fill="#222047"/>
<path d="M162.285 25.3844H158.818V23.7936C157.868 24.9847 156.692 25.5802 155.29 25.5802C153.889 25.5802 152.712 25.1769 151.762 24.3692C150.812 23.5615 150.336 22.4841 150.336 21.1382C150.336 19.7924 150.828 18.7842 151.812 18.116C152.795 17.4466 154.138 17.1124 155.844 17.1124H158.597V17.0386C158.597 15.6353 157.852 14.9343 156.36 14.9343C155.72 14.9343 155.044 15.0609 154.332 15.3141C153.619 15.5673 153.016 15.8815 152.525 16.2566L150.878 13.8827C152.615 12.6259 154.598 11.9976 156.827 11.9976C158.433 11.9976 159.744 12.3973 160.76 13.1969C161.777 13.9964 162.284 15.2613 162.284 16.9905V25.3844H162.285ZM158.573 20.3668V19.7303H156.262C154.786 19.7303 154.049 20.1875 154.049 21.1007C154.049 21.5743 154.224 21.9366 154.578 22.1898C154.93 22.443 155.434 22.5697 156.09 22.5697C156.745 22.5697 157.323 22.3704 157.823 21.9694C158.323 21.5697 158.573 21.0362 158.573 20.3668Z" fill="#222047"/>
<path d="M168.187 14.8592V20.7572C168.187 21.2637 168.318 21.6587 168.581 21.9448C168.842 22.2308 169.154 22.3727 169.515 22.3727C170.204 22.3727 170.784 22.0632 171.26 21.443L172.636 24.0128C171.489 25.0573 170.28 25.579 169.011 25.579C167.74 25.579 166.666 25.1628 165.79 24.3305C164.912 23.4981 164.474 22.3645 164.474 20.9284V14.858H162.926V12.2144H164.474V8.27539H168.186V12.2156H171.382V14.8592H168.187Z" fill="#222047"/>
<path d="M184.339 23.4748C182.847 24.8781 181.097 25.5792 179.09 25.5792C177.082 25.5792 175.423 24.9637 174.111 23.7316C172.799 22.4995 172.145 20.8476 172.145 18.775C172.145 16.7034 172.812 15.0552 174.149 13.8312C175.484 12.6073 177.062 11.9954 178.882 11.9954C180.701 11.9954 182.246 12.5428 183.516 13.6355C184.785 14.7292 185.421 16.2298 185.421 18.1384V20.0962H175.783C175.898 20.8148 176.276 21.4022 176.914 21.8582C177.553 22.3154 178.274 22.544 179.077 22.544C180.371 22.544 181.437 22.1114 182.273 21.2474L184.339 23.4748ZM180.798 15.6671C180.289 15.2427 179.671 15.0305 178.942 15.0305C178.212 15.0305 177.544 15.2509 176.937 15.6917C176.331 16.1325 175.979 16.7281 175.88 17.4784H181.682C181.601 16.6952 181.306 16.0915 180.798 15.6671Z" fill="#222047"/>
<path d="M196.143 23.1571C194.98 24.4467 193.532 25.0903 191.804 25.0903C190.074 25.0903 188.616 24.5065 187.427 23.34C186.239 22.1736 185.645 20.6155 185.645 18.6648C185.645 16.7152 186.255 15.1161 187.476 13.8676C188.697 12.619 190.094 11.9954 191.668 11.9954C193.243 11.9954 194.545 12.6401 195.578 13.9285V12.1923H199.266V23.6718C199.266 24.8465 199.061 25.891 198.651 26.8043C198.242 27.7175 197.693 28.4362 197.004 28.9578C195.644 30.0352 194.037 30.5733 192.185 30.5733C191.202 30.5733 190.197 30.4139 189.173 30.0962C188.148 29.7785 187.251 29.3248 186.481 28.7374L187.907 25.9719C189.12 26.8852 190.402 27.3424 191.754 27.3424C193.106 27.3424 194.175 27.0083 194.962 26.3389C195.75 25.6695 196.143 24.6097 196.143 23.1571ZM195.626 18.5194C195.626 17.4666 195.331 16.639 194.741 16.0352C194.151 15.4315 193.42 15.1302 192.552 15.1302C191.683 15.1302 190.933 15.4326 190.303 16.0352C189.672 16.639 189.356 17.4631 189.356 18.5077C189.356 19.5522 189.664 20.3963 190.278 21.0411C190.893 21.6859 191.643 22.0083 192.528 22.0083C193.413 22.0083 194.151 21.6906 194.741 21.054C195.332 20.4162 195.626 19.571 195.626 18.5194Z" fill="#222047"/>
<path d="M201.341 10.5404C200.923 10.1242 200.715 9.61426 200.715 9.01051C200.715 8.40676 200.923 7.89679 201.341 7.48061C201.759 7.06444 202.272 6.85693 202.878 6.85693C203.485 6.85693 203.997 7.06444 204.415 7.48061C204.833 7.89679 205.041 8.40676 205.041 9.01051C205.041 9.61426 204.832 10.1242 204.415 10.5404C203.998 10.9566 203.485 11.1641 202.878 11.1641C202.272 11.1641 201.759 10.9554 201.341 10.5404ZM204.722 25.3845H201.034V12.2168H204.722V25.3845Z" fill="#222047"/>
<path d="M217.948 23.4748C216.456 24.8781 214.706 25.5792 212.7 25.5792C210.692 25.5792 209.032 24.9637 207.721 23.7316C206.409 22.4995 205.754 20.8476 205.754 18.775C205.754 16.7034 206.422 15.0552 207.758 13.8312C209.094 12.6073 210.672 11.9954 212.491 11.9954C214.311 11.9954 215.856 12.5428 217.125 13.6355C218.395 14.7292 219.03 16.2298 219.03 18.1384V20.0962H209.393C209.507 20.8148 209.885 21.4022 210.523 21.8582C211.163 22.3154 211.883 22.544 212.687 22.544C213.981 22.544 215.047 22.1114 215.883 21.2474L217.948 23.4748ZM214.407 15.6671C213.898 15.2427 213.28 15.0305 212.551 15.0305C211.821 15.0305 211.153 15.2509 210.547 15.6917C209.94 16.1325 209.588 16.7281 209.489 17.4784H215.292C215.21 16.6952 214.916 16.0915 214.407 15.6671Z" fill="#222047"/>
<path d="M229.922 21.2849C229.922 22.5827 229.443 23.6226 228.484 24.4057C227.525 25.1888 226.308 25.5804 224.833 25.5804C223.85 25.5804 222.826 25.4045 221.76 25.054C220.694 24.7035 219.735 24.1853 218.883 23.4995L220.506 21.1982C221.882 22.2591 223.35 22.789 224.906 22.789C225.382 22.789 225.759 22.6952 226.037 22.5077C226.315 22.3201 226.455 22.0716 226.455 21.7609C226.455 21.4514 226.262 21.1654 225.877 20.9039C225.492 20.6425 224.935 20.3986 224.205 20.17C223.474 19.9414 222.917 19.7457 222.532 19.5827C222.147 19.4197 221.709 19.1829 221.217 18.8734C220.217 18.2533 219.717 17.3353 219.717 16.1196C219.717 14.9039 220.209 13.9133 221.192 13.1454C222.175 12.3787 223.446 11.9954 225.003 11.9954C226.56 11.9954 228.117 12.5182 229.675 13.5616L228.298 16.0094C227.151 15.2263 226.007 14.8348 224.869 14.8348C223.729 14.8348 223.16 15.1454 223.16 15.7644C223.16 16.1067 223.34 16.3764 223.7 16.5721C224.061 16.7679 224.659 16.9965 225.495 17.258C226.331 17.5194 226.925 17.7187 227.278 17.857C227.63 17.9954 228.053 18.2122 228.544 18.5053C229.463 19.0622 229.922 19.9872 229.922 21.2849Z" fill="#222047"/>
<path d="M0.198616 18.0057L9.79628 30.5497H20.1735L29.498 21.3844L23.4509 13.6939H20.9154L15.2193 18.8979L11.6687 14.8979L18.9641 8.41138H26.1818L36.6344 21.9589L22.3203 35.9096H6.94877L0.0820312 26.8018V17.8979L0.198616 18.0057Z" fill="#222047"/>
<path d="M36.6344 18.0058V9.03275L29.6734 0.0808105H14.4974L0.0820312 13.9847L10.7136 27.5591H17.9113L25.0901 21.0538L21.4807 17.0925L15.9612 22.2766H13.3268L7.22198 14.5673L16.7407 5.3821H27.1769L36.6344 18.0058Z" fill="#222047"/>
</g>
<defs>
<clipPath id="clip0_351_36">
<rect width="230" height="36" fill="white"/>
</clipPath>
</defs>
</svg>
